<?xml version="1.0" encoding="UTF-8"?>
<svg id="Layer_2" data-name="Layer 2" xmlns="http://www.w3.org/2000/svg" viewBox="0 0 40.15 40.15">
  <defs>
    <style>
      .cls-1 {
        fill: #6eb3b6;
      }
    </style>
  </defs>
  <g id="Layer_1-2" data-name="Layer 1">
    <path class="cls-1" d="M20.07,40.15c5.32,0,10.43-2.11,14.2-5.88,3.76-3.77,5.88-8.87,5.88-14.2s-2.11-10.43-5.88-14.2C30.5,2.11,25.4,0,20.07,0S9.65,2.11,5.88,5.88C2.11,9.64,0,14.75,0,20.07c0,5.32,2.12,10.42,5.89,14.19s8.87,5.88,14.19,5.89h0ZM11.84,7.78c-1.39,3.73-2.1,7.67-2.11,11.65H1.33c.14-4.3,1.76-8.41,4.59-11.65h5.93ZM34.23,7.78c2.83,3.24,4.44,7.36,4.59,11.65h-8.4c-.01-3.98-.73-7.92-2.11-11.65h5.93ZM28.3,32.37c1.39-3.73,2.1-7.67,2.11-11.65h8.4c-.14,4.3-1.76,8.41-4.59,11.65h-5.93ZM19.43,33.67v5.11c-2.11-.33-4.04-2.22-5.52-5.11h5.52ZM13.3,32.37c-1.48-3.71-2.26-7.66-2.28-11.65h8.4v11.65h-6.13ZM20.72,38.78v-5.11h5.52c-1.48,2.89-3.41,4.79-5.52,5.11ZM20.72,32.37v-11.65h8.4c-.02,3.99-.79,7.95-2.28,11.65h-6.13ZM29.12,19.43h-8.4V7.78h6.13c1.48,3.71,2.26,7.66,2.28,11.65h0ZM20.72,6.48V1.37c2.11.33,4.04,2.22,5.52,5.11h-5.52ZM19.43,1.37v5.11h-5.52c1.48-2.89,3.41-4.79,5.52-5.11ZM19.43,7.78v11.65h-8.4c.02-3.99.79-7.95,2.28-11.65h6.13ZM9.73,20.72c.01,3.98.73,7.92,2.11,11.65h-5.93c-2.83-3.24-4.44-7.36-4.59-11.65h8.4ZM7.15,33.67h5.25c.77,1.76,1.9,3.34,3.3,4.65-3.21-.77-6.16-2.38-8.55-4.65h0ZM27.74,33.67h5.25c-2.39,2.28-5.34,3.88-8.55,4.65,1.4-1.31,2.52-2.89,3.3-4.65h0ZM32.99,6.48h-5.25c-.77-1.76-1.9-3.34-3.3-4.65,3.21.77,6.16,2.38,8.55,4.65h0ZM12.4,6.48h-5.25c2.39-2.28,5.34-3.88,8.55-4.65-1.4,1.31-2.53,2.89-3.3,4.65h0Z"/>
  </g>
</svg>