<svg xmlns="http://www.w3.org/2000/svg" width="47.401" height="49.794" viewBox="0 0 47.401 49.794">
  <g id="Group_184" data-name="Group 184" transform="translate(-711.92 -3811.387)">
    <path id="Path_134" data-name="Path 134" d="M758.482,3843.343a2.16,2.16,0,0,0-1.938-1.982,16.866,16.866,0,0,1-7.164-2.437,2.111,2.111,0,0,0-2.112-.061v-24.652a2.326,2.326,0,0,0-2.322-2.324h-30.2a2.328,2.328,0,0,0-2.324,2.324v40.654a2.328,2.328,0,0,0,2.324,2.323h26.813a12.542,12.542,0,0,0,4,2.573l1.9.757a2.151,2.151,0,0,0,1.6,0l1.9-.757a12.456,12.456,0,0,0,7.823-12.569Zm-43.737-29.132h30.2v25.828c-.357.155-.71.318-1.078.447v0a16.968,16.968,0,0,1-3.9.873,2.165,2.165,0,0,0-1.941,1.982l-.3,3.849a12.491,12.491,0,0,0,1.91,7.673h-24.9Zm35.347,43.391-1.836.734-1.836-.734v0a10.2,10.2,0,0,1-3.506-2.339.784.784,0,0,0-.083-.087,10.138,10.138,0,0,1-2.781-7.81l.285-3.711v0a18.981,18.981,0,0,0,6.214-1.777c.011-.005.022-.013.033-.018a18.289,18.289,0,0,0,1.672-.906h0a19.171,19.171,0,0,0,7.919,2.7l.285,3.711,0,0a10.133,10.133,0,0,1-6.37,10.234Z" fill="#54b4b6" stroke="#fff" stroke-miterlimit="10" stroke-width="1"/>
    <path id="Path_135" data-name="Path 135" d="M719.39,3829.311H740.3a1.164,1.164,0,0,0,1.164-1.161v-9.293a1.164,1.164,0,0,0-1.164-1.161H719.39a1.161,1.161,0,0,0-1.161,1.161v9.293a1.161,1.161,0,0,0,1.161,1.161Zm1.161-9.293h18.587v6.969H720.553Z" fill="#54b4b6" stroke="#fff" stroke-miterlimit="10" stroke-width="1"/>
    <path id="Path_136" data-name="Path 136" d="M719.39,3840.346H740.3a1.162,1.162,0,1,0,0-2.323H719.39a1.161,1.161,0,0,0,0,2.323Z" fill="#54b4b6" stroke="#fff" stroke-miterlimit="10" stroke-width="1"/>
    <path id="Path_137" data-name="Path 137" d="M732.168,3843.25H719.39a1.161,1.161,0,0,0,0,2.323h12.778a1.161,1.161,0,0,0,0-2.323Z" fill="#54b4b6" stroke="#fff" stroke-miterlimit="10" stroke-width="1"/>
    <path id="Path_138" data-name="Path 138" d="M732.168,3848.477H719.39a1.162,1.162,0,0,0,0,2.324h12.778a1.162,1.162,0,0,0,0-2.324Z" fill="#54b4b6" stroke="#fff" stroke-miterlimit="10" stroke-width="1"/>
    <path id="Path_139" data-name="Path 139" d="M719.39,3835.119H740.3a1.162,1.162,0,1,0,0-2.323H719.39a1.161,1.161,0,0,0,0,2.323Z" fill="#54b4b6" stroke="#fff" stroke-miterlimit="10" stroke-width="1"/>
    <path id="Path_140" data-name="Path 140" d="M750.221,3846.732l-3.066,3.165-.614-.615a1.162,1.162,0,0,0-1.643,1.643l1.449,1.448a1.16,1.16,0,0,0,.821.34h.009a1.169,1.169,0,0,0,.825-.353l3.888-4.012a1.163,1.163,0,0,0-.852-1.971,1.17,1.17,0,0,0-.817.355Z" fill="#54b4b6" stroke="#fff" stroke-miterlimit="10" stroke-width="1"/>
  </g>
</svg>
